<svg width="125" height="16" viewBox="0 0 125 16" fill="none" xmlns="http://www.w3.org/2000/svg">
<mask id="path-1-outside-1_3498_5561" maskUnits="userSpaceOnUse" x="0" y="0" width="126" height="17" fill="black">
<rect fill="white" width="126" height="17"/>
<path d="M10.196 15.494L5.03 9.068L2.438 11.948V15.494H0.548V1.076H2.438V9.392L9.836 1.076H12.194L6.254 7.7L12.608 15.494H10.196ZM18.0502 1.076V15.494H16.1602V1.076H18.0502ZM29.7024 15.818C25.3464 15.818 22.1424 12.632 22.1424 8.276C22.1424 3.92 25.3464 0.733999 29.7024 0.733999C33.4284 0.733999 36.0024 2.894 36.7584 5.918H34.8324C34.2204 3.884 32.3664 2.48 29.7384 2.48C26.4264 2.48 24.0324 4.892 24.0324 8.276C24.0324 11.642 26.4444 14.072 29.7384 14.072C32.4384 14.072 34.4544 12.488 34.9764 10.436H36.9024C36.2724 13.442 33.5184 15.818 29.7024 15.818ZM47.9174 15.818C43.5434 15.818 40.3034 12.632 40.3034 8.276C40.3034 3.92 43.5254 0.733999 47.8994 0.733999C52.2734 0.733999 55.5134 3.92 55.5134 8.276C55.5134 12.632 52.2914 15.818 47.9174 15.818ZM47.9174 14.09C51.1934 14.09 53.6234 11.66 53.6234 8.276C53.6234 4.874 51.1934 2.462 47.8994 2.462C44.6054 2.462 42.1934 4.874 42.1934 8.276C42.1934 11.66 44.6234 14.09 47.9174 14.09ZM66.2867 1.076H67.9427L73.5047 10.868L79.0667 1.076H80.7227V15.494H78.8327V4.856L74.1887 13.064H72.8207L68.1767 4.856V15.494H66.2867V1.076ZM96.0345 15.494L94.5945 11.93H87.6645L86.2245 15.494H84.2445L90.1845 1.076H92.1825L98.1045 15.494H96.0345ZM88.3305 10.256H93.9285L91.1385 3.29L88.3305 10.256ZM103.532 1.076V13.784H111.452V15.494H101.642V1.076H103.532ZM117.087 1.076V13.784H125.007V15.494H115.197V1.076H117.087Z"/>
</mask>
<path d="M10.196 15.494L5.03 9.068L2.438 11.948V15.494H0.548V1.076H2.438V9.392L9.836 1.076H12.194L6.254 7.7L12.608 15.494H10.196ZM18.0502 1.076V15.494H16.1602V1.076H18.0502ZM29.7024 15.818C25.3464 15.818 22.1424 12.632 22.1424 8.276C22.1424 3.92 25.3464 0.733999 29.7024 0.733999C33.4284 0.733999 36.0024 2.894 36.7584 5.918H34.8324C34.2204 3.884 32.3664 2.48 29.7384 2.48C26.4264 2.48 24.0324 4.892 24.0324 8.276C24.0324 11.642 26.4444 14.072 29.7384 14.072C32.4384 14.072 34.4544 12.488 34.9764 10.436H36.9024C36.2724 13.442 33.5184 15.818 29.7024 15.818ZM47.9174 15.818C43.5434 15.818 40.3034 12.632 40.3034 8.276C40.3034 3.92 43.5254 0.733999 47.8994 0.733999C52.2734 0.733999 55.5134 3.92 55.5134 8.276C55.5134 12.632 52.2914 15.818 47.9174 15.818ZM47.9174 14.09C51.1934 14.09 53.6234 11.66 53.6234 8.276C53.6234 4.874 51.1934 2.462 47.8994 2.462C44.6054 2.462 42.1934 4.874 42.1934 8.276C42.1934 11.66 44.6234 14.09 47.9174 14.09ZM66.2867 1.076H67.9427L73.5047 10.868L79.0667 1.076H80.7227V15.494H78.8327V4.856L74.1887 13.064H72.8207L68.1767 4.856V15.494H66.2867V1.076ZM96.0345 15.494L94.5945 11.93H87.6645L86.2245 15.494H84.2445L90.1845 1.076H92.1825L98.1045 15.494H96.0345ZM88.3305 10.256H93.9285L91.1385 3.29L88.3305 10.256ZM103.532 1.076V13.784H111.452V15.494H101.642V1.076H103.532ZM117.087 1.076V13.784H125.007V15.494H115.197V1.076H117.087Z" fill="white"/>
<path d="M10.196 15.494L9.96219 15.682L10.0523 15.794H10.196V15.494ZM5.03 9.068L5.26381 8.88003L5.04289 8.60522L4.80701 8.86731L5.03 9.068ZM2.438 11.948L2.21501 11.7473L2.138 11.8329V11.948H2.438ZM2.438 15.494V15.794H2.738V15.494H2.438ZM0.548 15.494H0.248V15.794H0.548V15.494ZM0.548 1.076V0.775999H0.248V1.076H0.548ZM2.438 1.076H2.738V0.775999H2.438V1.076ZM2.438 9.392H2.138V10.1806L2.66214 9.5914L2.438 9.392ZM9.836 1.076V0.775999H9.70135L9.61186 0.8766L9.836 1.076ZM12.194 1.076L12.4174 1.27629L12.866 0.775999H12.194V1.076ZM6.254 7.7L6.03065 7.49971L5.85937 7.69072L6.02148 7.88956L6.254 7.7ZM12.608 15.494V15.794H13.2396L12.8405 15.3044L12.608 15.494ZM10.4298 15.306L5.26381 8.88003L4.79619 9.25597L9.96219 15.682L10.4298 15.306ZM4.80701 8.86731L2.21501 11.7473L2.66099 12.1487L5.25299 9.26869L4.80701 8.86731ZM2.138 11.948V15.494H2.738V11.948H2.138ZM2.438 15.194H0.548V15.794H2.438V15.194ZM0.848 15.494V1.076H0.248V15.494H0.848ZM0.548 1.376H2.438V0.775999H0.548V1.376ZM2.138 1.076V9.392H2.738V1.076H2.138ZM2.66214 9.5914L10.0601 1.2754L9.61186 0.8766L2.21386 9.1926L2.66214 9.5914ZM9.836 1.376H12.194V0.775999H9.836V1.376ZM11.9707 0.875712L6.03065 7.49971L6.47735 7.90029L12.4174 1.27629L11.9707 0.875712ZM6.02148 7.88956L12.3755 15.6836L12.8405 15.3044L6.48652 7.51044L6.02148 7.88956ZM12.608 15.194H10.196V15.794H12.608V15.194ZM18.0502 1.076H18.3502V0.775999H18.0502V1.076ZM18.0502 15.494V15.794H18.3502V15.494H18.0502ZM16.1602 15.494H15.8602V15.794H16.1602V15.494ZM16.1602 1.076V0.775999H15.8602V1.076H16.1602ZM17.7502 1.076V15.494H18.3502V1.076H17.7502ZM18.0502 15.194H16.1602V15.794H18.0502V15.194ZM16.4602 15.494V1.076H15.8602V15.494H16.4602ZM16.1602 1.376H18.0502V0.775999H16.1602V1.376ZM36.7584 5.918V6.218H37.1426L37.0494 5.84524L36.7584 5.918ZM34.8324 5.918L34.5451 6.00444L34.6094 6.218H34.8324V5.918ZM34.9764 10.436V10.136H34.7431L34.6856 10.362L34.9764 10.436ZM36.9024 10.436L37.196 10.4975L37.2718 10.136H36.9024V10.436ZM29.7024 15.518C25.5111 15.518 22.4424 12.4654 22.4424 8.276H21.8424C21.8424 12.7986 25.1816 16.118 29.7024 16.118V15.518ZM22.4424 8.276C22.4424 4.08663 25.5111 1.034 29.7024 1.034V0.433999C25.1816 0.433999 21.8424 3.75337 21.8424 8.276H22.4424ZM29.7024 1.034C33.2965 1.034 35.7461 3.10587 36.4673 5.99076L37.0494 5.84524C36.2586 2.68213 33.5602 0.433999 29.7024 0.433999V1.034ZM36.7584 5.618H34.8324V6.218H36.7584V5.618ZM35.1197 5.83156C34.4652 3.65647 32.4832 2.18 29.7384 2.18V2.78C32.2496 2.78 33.9756 4.11153 34.5451 6.00444L35.1197 5.83156ZM29.7384 2.18C26.257 2.18 23.7324 4.73007 23.7324 8.276H24.3324C24.3324 5.05393 26.5958 2.78 29.7384 2.78V2.18ZM23.7324 8.276C23.7324 11.8039 26.275 14.372 29.7384 14.372V13.772C26.6138 13.772 24.3324 11.4801 24.3324 8.276H23.7324ZM29.7384 14.372C32.5563 14.372 34.7068 12.7127 35.2671 10.51L34.6856 10.362C34.202 12.2633 32.3204 13.772 29.7384 13.772V14.372ZM34.9764 10.736H36.9024V10.136H34.9764V10.736ZM36.6088 10.3745C36.01 13.2315 33.3869 15.518 29.7024 15.518V16.118C33.6499 16.118 36.5348 13.6525 37.196 10.4975L36.6088 10.3745ZM47.9174 15.518C43.7058 15.518 40.6034 12.463 40.6034 8.276H40.0034C40.0034 12.801 43.381 16.118 47.9174 16.118V15.518ZM40.6034 8.276C40.6034 4.08804 43.6887 1.034 47.8994 1.034V0.433999C43.3621 0.433999 40.0034 3.75196 40.0034 8.276H40.6034ZM47.8994 1.034C52.111 1.034 55.2134 4.08898 55.2134 8.276H55.8134C55.8134 3.75102 52.4358 0.433999 47.8994 0.433999V1.034ZM55.2134 8.276C55.2134 12.464 52.1281 15.518 47.9174 15.518V16.118C52.4547 16.118 55.8134 12.8 55.8134 8.276H55.2134ZM47.9174 14.39C51.3628 14.39 53.9234 11.8219 53.9234 8.276H53.3234C53.3234 11.4981 51.024 13.79 47.9174 13.79V14.39ZM53.9234 8.276C53.9234 4.71081 51.3616 2.162 47.8994 2.162V2.762C51.0252 2.762 53.3234 5.03719 53.3234 8.276H53.9234ZM47.8994 2.162C44.436 2.162 41.8934 4.71206 41.8934 8.276H42.4934C42.4934 5.03593 44.7748 2.762 47.8994 2.762V2.162ZM41.8934 8.276C41.8934 11.8226 44.4546 14.39 47.9174 14.39V13.79C44.7922 13.79 42.4934 11.4974 42.4934 8.276H41.8934ZM66.2867 1.076V0.775999H65.9867V1.076H66.2867ZM67.9427 1.076L68.2035 0.927829L68.1173 0.775999H67.9427V1.076ZM73.5047 10.868L73.2438 11.0162L73.5047 11.4754L73.7655 11.0162L73.5047 10.868ZM79.0667 1.076V0.775999H78.8921L78.8058 0.927829L79.0667 1.076ZM80.7227 1.076H81.0227V0.775999H80.7227V1.076ZM80.7227 15.494V15.794H81.0227V15.494H80.7227ZM78.8327 15.494H78.5327V15.794H78.8327V15.494ZM78.8327 4.856H79.1327V3.71655L78.5716 4.70827L78.8327 4.856ZM74.1887 13.064V13.364H74.3636L74.4498 13.2117L74.1887 13.064ZM72.8207 13.064L72.5596 13.2117L72.6457 13.364H72.8207V13.064ZM68.1767 4.856L68.4378 4.70827L67.8767 3.71655V4.856H68.1767ZM68.1767 15.494V15.794H68.4767V15.494H68.1767ZM66.2867 15.494H65.9867V15.794H66.2867V15.494ZM66.2867 1.376H67.9427V0.775999H66.2867V1.376ZM67.6818 1.22417L73.2438 11.0162L73.7655 10.7198L68.2035 0.927829L67.6818 1.22417ZM73.7655 11.0162L79.3275 1.22417L78.8058 0.927829L73.2438 10.7198L73.7655 11.0162ZM79.0667 1.376H80.7227V0.775999H79.0667V1.376ZM80.4227 1.076V15.494H81.0227V1.076H80.4227ZM80.7227 15.194H78.8327V15.794H80.7227V15.194ZM79.1327 15.494V4.856H78.5327V15.494H79.1327ZM78.5716 4.70827L73.9276 12.9163L74.4498 13.2117L79.0938 5.00373L78.5716 4.70827ZM74.1887 12.764H72.8207V13.364H74.1887V12.764ZM73.0818 12.9163L68.4378 4.70827L67.9156 5.00373L72.5596 13.2117L73.0818 12.9163ZM67.8767 4.856V15.494H68.4767V4.856H67.8767ZM68.1767 15.194H66.2867V15.794H68.1767V15.194ZM66.5867 15.494V1.076H65.9867V15.494H66.5867ZM96.0345 15.494L95.7563 15.6064L95.8321 15.794H96.0345V15.494ZM94.5945 11.93L94.8726 11.8176L94.7968 11.63H94.5945V11.93ZM87.6645 11.93V11.63H87.4621L87.3863 11.8176L87.6645 11.93ZM86.2245 15.494V15.794H86.4268L86.5026 15.6064L86.2245 15.494ZM84.2445 15.494L83.9671 15.3797L83.7964 15.794H84.2445V15.494ZM90.1845 1.076V0.775999H89.9836L89.9071 0.961722L90.1845 1.076ZM92.1825 1.076L92.46 0.962018L92.3836 0.775999H92.1825V1.076ZM98.1045 15.494V15.794H98.552L98.382 15.38L98.1045 15.494ZM88.3305 10.256L88.0522 10.1438L87.8861 10.556H88.3305V10.256ZM93.9285 10.256V10.556H94.3718L94.207 10.1445L93.9285 10.256ZM91.1385 3.29L91.417 3.17846L91.1394 2.48536L90.8602 3.17784L91.1385 3.29ZM96.3126 15.3816L94.8726 11.8176L94.3163 12.0424L95.7563 15.6064L96.3126 15.3816ZM94.5945 11.63H87.6645V12.23H94.5945V11.63ZM87.3863 11.8176L85.9463 15.3816L86.5026 15.6064L87.9426 12.0424L87.3863 11.8176ZM86.2245 15.194H84.2445V15.794H86.2245V15.194ZM84.5219 15.6083L90.4619 1.19028L89.9071 0.961722L83.9671 15.3797L84.5219 15.6083ZM90.1845 1.376H92.1825V0.775999H90.1845V1.376ZM91.905 1.18998L97.827 15.608L98.382 15.38L92.46 0.962018L91.905 1.18998ZM98.1045 15.194H96.0345V15.794H98.1045V15.194ZM88.3305 10.556H93.9285V9.956H88.3305V10.556ZM94.207 10.1445L91.417 3.17846L90.86 3.40154L93.65 10.3675L94.207 10.1445ZM90.8602 3.17784L88.0522 10.1438L88.6087 10.3682L91.4167 3.40216L90.8602 3.17784ZM103.532 1.076H103.832V0.775999H103.532V1.076ZM103.532 13.784H103.232V14.084H103.532V13.784ZM111.452 13.784H111.752V13.484H111.452V13.784ZM111.452 15.494V15.794H111.752V15.494H111.452ZM101.642 15.494H101.342V15.794H101.642V15.494ZM101.642 1.076V0.775999H101.342V1.076H101.642ZM103.232 1.076V13.784H103.832V1.076H103.232ZM103.532 14.084H111.452V13.484H103.532V14.084ZM111.152 13.784V15.494H111.752V13.784H111.152ZM111.452 15.194H101.642V15.794H111.452V15.194ZM101.942 15.494V1.076H101.342V15.494H101.942ZM101.642 1.376H103.532V0.775999H101.642V1.376ZM117.087 1.076H117.387V0.775999H117.087V1.076ZM117.087 13.784H116.787V14.084H117.087V13.784ZM125.007 13.784H125.307V13.484H125.007V13.784ZM125.007 15.494V15.794H125.307V15.494H125.007ZM115.197 15.494H114.897V15.794H115.197V15.494ZM115.197 1.076V0.775999H114.897V1.076H115.197ZM116.787 1.076V13.784H117.387V1.076H116.787ZM117.087 14.084H125.007V13.484H117.087V14.084ZM124.707 13.784V15.494H125.307V13.784H124.707ZM125.007 15.194H115.197V15.794H125.007V15.194ZM115.497 15.494V1.076H114.897V15.494H115.497ZM115.197 1.376H117.087V0.775999H115.197V1.376Z" fill="white" mask="url(#path-1-outside-1_3498_5561)"/>
</svg>
